<svg id="Capa_1" enable-background="new 0 0 512 512" height="512" viewBox="0 0 512 512" width="512" xmlns="http://www.w3.org/2000/svg"><g><g><path d="m400.844 100.792c-41.458-41.458-96.579-64.29-155.209-64.29l-21.635 219.498 21.635 219.498c58.63 0 113.751-22.832 155.209-64.29 41.457-41.457 64.289-96.578 64.289-155.208s-22.832-113.751-64.289-155.208z" fill="#f7d586"/><path d="m90.427 100.792c-41.458 41.457-64.29 96.578-64.29 155.208s22.832 113.751 64.29 155.208c41.458 41.458 96.578 64.29 155.208 64.29v-438.996c-58.63 0-113.75 22.832-155.208 64.29z" fill="#f9e89c"/></g><g><g><path d="m388 52.716-142.667 107.966-10.666 41.985 10.666 40.069 142.667-107.966z" fill="#eaf1ff"/><path d="m388 377.23-142.667-107.966-10.666 40.069 10.666 41.985 142.667 107.966z" fill="#eaf1ff"/><path d="m227.806 256 17.527-13.264v-82.054l-93.866 71.035v48.566l93.866 71.035v-82.054z" fill="#f9f9f9"/></g><ellipse cx="168.431" cy="256" fill="#80aaff" rx="73.16" ry="73.16" transform="matrix(.41 -.912 .912 .41 -134.101 304.778)"/><g fill="#6680ff"><ellipse cx="412.703" cy="73.16" rx="73.16" ry="73.16" transform="matrix(.707 -.707 .707 .707 69.146 313.253)"/><ellipse cx="412.703" cy="438.84" rx="73.16" ry="73.16" transform="matrix(.038 -.999 .999 .038 -41.652 834.398)"/></g></g></g></svg>