<svg id="Capa_1" enable-background="new 0 0 512 512" height="512" viewBox="0 0 512 512" width="512" xmlns="http://www.w3.org/2000/svg"><g><g><path d="m330.667 16.691-10.667 164.729 10.667 164.729c18.023-11.567 30-31.769 30-54.729v-220c0-22.96-11.977-43.162-30-54.729z" fill="#b7dcfd"/><path d="m295.667 6.42h-230.667c-35.841 0-65 29.159-65 65v220.001c0 35.841 29.159 65 65 65h20.334v63.826l114.887-63.826h95.446c12.881 0 24.888-3.782 35-10.271v-329.459c-10.112-6.489-22.119-10.271-35-10.271z" fill="#d0e8fe"/></g><g><g><path d="m447 91.754h-116.333l-10.667 175 10.667 185.492 96 53.334v-63.826h20.333c35.841 0 65-29.159 65-65v-220c0-35.842-29.159-65-65-65z" fill="#59c36a"/><path d="m216.334 91.754c-35.841 0-65 29.159-65 65v220c0 35.841 29.159 65 65 65h95.446l18.887 10.493v-360.493z" fill="#97de3d"/></g><g><g fill="#eaf1ff"><path d="m426.876 281.335v-30h-96.209l-10.667 15.419 10.667 14.581z"/><path d="m357.633 347.254v-30h-26.966l-10.667 13.5 10.667 16.5z"/><path d="m426.667 215.254v-30h-96l-10.667 17.5 10.667 12.5z"/></g><path d="m236.458 251.335h94.209v30h-94.209z" fill="#f9f9f9"/><path d="m236.458 317.254h94.209v30h-94.209z" fill="#f9f9f9"/><path d="m236.458 185.254h94.209v30h-94.209z" fill="#f9f9f9"/></g></g></g></svg>