<svg id="Capa_1" enable-background="new 0 0 512.001 512.001" height="512" viewBox="0 0 512.001 512.001" width="512" xmlns="http://www.w3.org/2000/svg"><g><g><path d="m341.087.43c-16.08-1.717-31.97 1.734-45.955 9.987-13.327 7.865-24.019 19.509-30.919 33.674-2.835 5.818-5.616 13.998-8.212 23.105l-10.667 50.139 10.667 34.64c42.878 0 85.756-.674 92.241-2.022 32.44-6.744 56.593-33.332 60.104-66.162 4.438-41.526-25.734-78.922-67.259-83.361z" fill="#6680ff"/><path d="m247.788 44.091c-6.9-14.165-17.592-25.809-30.919-33.674-13.984-8.253-29.874-11.705-45.955-9.987-41.525 4.44-71.697 41.835-67.258 83.361 3.51 32.83 27.663 59.418 60.103 66.161 6.486 1.348 49.363 2.022 92.241 2.022v-84.778c-2.596-9.107-5.377-17.287-8.212-23.105z" fill="#80aaff"/></g><g><path d="m327.001 254.901 16.62 257.1h105.015v-257.1z" fill="#fdae02"/><path d="m63.365 254.901v257.1h161.444l31.192-257.1z" fill="#fdcb02"/></g><g><path d="m471.774 122.805h-128.152l-87.621 10.001-10.667 69.862 10.667 78.93h215.773z" fill="#fdcb02"/><path d="m40.227 122.805v158.793h215.774v-148.792l-118.814-10.001z" fill="#fddf68"/></g><g><path d="m343.621 122.805h-87.62l-10.667 165.196 10.667 224h87.62z" fill="#80aaff"/><path d="m224.808 326.48h31.192v185.521h-31.192z" fill="#8bc6fd"/></g><path d="m137.188 122.805v254.948l59.406-17.144 59.407 17.144v-254.948z" fill="#a9d5fe"/></g></svg>