<svg id="Capa_1" enable-background="new 0 0 510.987 510.987" height="512" viewBox="0 0 510.987 510.987" width="512" xmlns="http://www.w3.org/2000/svg"><g><g><path d="m500.381 322.946 10.606-3.249v-77.129h-122.5l-16.167 131.903 16.167 132.764h122.5v-77.129l-10.606-3.249c-22.965-7.035-38.394-27.914-38.394-51.955 0-24.042 15.429-44.921 38.394-51.956z" fill="#ff4d4d"/><path d="m388.487 242.568h-180.253l-17.247 131.903 17.247 132.764h180.253z" fill="#f7d586"/><path d="m90.654 242.568h117.58v264.667h-117.58z" fill="#f9e89c"/></g><g><path d="m388.571 163.666v-55.796l-48.321-27.898-27.898-48.321h-55.796l-48.322-27.898-10 210.723 10 205.746 48.322-27.898h55.796l27.898-48.321 48.321-27.899v-55.796l27.898-48.321z" fill="#fdae02"/><path d="m159.913 31.651h-55.796l-27.897 48.321-48.322 27.898v55.796l-27.898 48.321 27.898 48.321v55.796l48.322 27.899 27.897 48.321h55.796l48.321 27.898v-416.469z" fill="#fdcb02"/></g><g><path d="m189.234 157.783c0-24.813-20.187-45-45-45-24.814 0-45 20.187-45 45s20.187 45 45 45c24.814 0 45-20.187 45-45zm-45 15c-8.271 0-15-6.729-15-15s6.729-15 15-15 15 6.729 15 15-6.728 15-15 15z" fill="#f9f9f9"/><path d="m272.234 221.192c-24.814 0-45 20.187-45 45s20.186 45 45 45c24.813 0 45-20.187 45-45s-20.186-45-45-45zm0 60c-8.272 0-15-6.729-15-15s6.728-15 15-15c8.271 0 15 6.729 15 15s-6.728 15-15 15z" fill="#eaf1ff"/><g><path d="m269.756 125.611-26.613-13.847-34.909 67.091-7.247 46.88 7.247 18.116z" fill="#eaf1ff"/><path d="m171.82 313.837 36.414-69.986v-64.996l-63.027 121.135z" fill="#f9f9f9"/></g></g></g></svg>